<svg width="70" height="69" viewBox="0 0 70 69" fill="none" xmlns="http://www.w3.org/2000/svg">
<rect x="6" y="5.71826" width="58" height="58" rx="29" fill="white"/>
<rect x="6" y="5.71826" width="58" height="58" rx="29" stroke="#0059FF" stroke-linejoin="round" stroke-dasharray="2 4 6 8"/>
<g filter="url(#filter0_ii_97_3463)">
<path d="M25.1611 34.4448C24.9845 34.0184 24.9381 33.5489 25.0283 33.0962C25.1184 32.6437 25.3406 32.2281 25.6669 31.9019L33.3505 24.2183C33.7881 23.7808 34.3822 23.5347 35.0009 23.5347C35.6195 23.5348 36.2129 23.7809 36.6503 24.2183L44.3339 31.9019C44.6601 32.2282 44.8826 32.6437 44.9726 33.0962C45.0626 33.5486 45.0162 34.0177 44.8398 34.4438C44.6632 34.8701 44.364 35.2353 43.9804 35.4917C43.5969 35.748 43.1458 35.8841 42.6845 35.8843L39.666 35.8862L39.6669 38.2183C39.6668 38.5039 39.5618 38.7792 39.372 38.9927C39.1821 39.2062 38.9205 39.343 38.6367 39.3765L38.5009 39.3843L31.5009 39.3843C31.1915 39.3843 30.8945 39.2613 30.6757 39.0425C30.4571 38.8238 30.334 38.5275 30.3339 38.2183L30.333 35.8862L27.3173 35.8843C26.8878 35.8842 26.466 35.7657 26.0996 35.5415C25.7332 35.3173 25.4358 34.9961 25.2402 34.6138L25.1611 34.4448ZM30.333 45.2183C30.3331 44.9327 30.4382 44.6573 30.6279 44.4438C30.8178 44.2303 31.0794 44.0935 31.3632 44.0601L31.5 44.0522L38.5 44.0522C38.7972 44.0526 39.0836 44.1665 39.2998 44.3706C39.5157 44.5746 39.6456 44.8534 39.663 45.1499C39.6805 45.4466 39.5842 45.7393 39.3935 45.9673C39.2027 46.1952 38.9318 46.3422 38.6367 46.3774L38.5 46.3853L31.5 46.3853C31.1905 46.3853 30.8936 46.2622 30.6748 46.0435C30.456 45.8247 30.333 45.5277 30.333 45.2183ZM30.333 41.7183C30.333 41.4325 30.438 41.1564 30.6279 40.9429C30.8178 40.7294 31.0795 40.5935 31.3632 40.5601L31.5 40.5513L38.5 40.5513C38.7972 40.5517 39.0836 40.6655 39.2998 40.8696C39.5159 41.0737 39.6456 41.3531 39.663 41.6499C39.6804 41.9467 39.5843 42.2393 39.3935 42.4673C39.2028 42.6952 38.9318 42.8412 38.6367 42.8765L38.5 42.8853L31.5 42.8853C31.1906 42.8853 30.8935 42.7621 30.6748 42.5435C30.456 42.3247 30.333 42.0276 30.333 41.7183Z" fill="url(#paint0_linear_97_3463)"/>
<path d="M25.1611 34.4448C24.9845 34.0184 24.9381 33.5489 25.0283 33.0962C25.1184 32.6437 25.3406 32.2281 25.6669 31.9019L33.3505 24.2183C33.7881 23.7808 34.3822 23.5347 35.0009 23.5347C35.6195 23.5348 36.2129 23.7809 36.6503 24.2183L44.3339 31.9019C44.6601 32.2282 44.8826 32.6437 44.9726 33.0962C45.0626 33.5486 45.0162 34.0177 44.8398 34.4438C44.6632 34.8701 44.364 35.2353 43.9804 35.4917C43.5969 35.748 43.1458 35.8841 42.6845 35.8843L39.666 35.8862L39.6669 38.2183C39.6668 38.5039 39.5618 38.7792 39.372 38.9927C39.1821 39.2062 38.9205 39.343 38.6367 39.3765L38.5009 39.3843L31.5009 39.3843C31.1915 39.3843 30.8945 39.2613 30.6757 39.0425C30.4571 38.8238 30.334 38.5275 30.3339 38.2183L30.333 35.8862L27.3173 35.8843C26.8878 35.8842 26.466 35.7657 26.0996 35.5415C25.7332 35.3173 25.4358 34.9961 25.2402 34.6138L25.1611 34.4448ZM30.333 45.2183C30.3331 44.9327 30.4382 44.6573 30.6279 44.4438C30.8178 44.2303 31.0794 44.0935 31.3632 44.0601L31.5 44.0522L38.5 44.0522C38.7972 44.0526 39.0836 44.1665 39.2998 44.3706C39.5157 44.5746 39.6456 44.8534 39.663 45.1499C39.6805 45.4466 39.5842 45.7393 39.3935 45.9673C39.2027 46.1952 38.9318 46.3422 38.6367 46.3774L38.5 46.3853L31.5 46.3853C31.1905 46.3853 30.8936 46.2622 30.6748 46.0435C30.456 45.8247 30.333 45.5277 30.333 45.2183ZM30.333 41.7183C30.333 41.4325 30.438 41.1564 30.6279 40.9429C30.8178 40.7294 31.0795 40.5935 31.3632 40.5601L31.5 40.5513L38.5 40.5513C38.7972 40.5517 39.0836 40.6655 39.2998 40.8696C39.5159 41.0737 39.6456 41.3531 39.663 41.6499C39.6804 41.9467 39.5843 42.2393 39.3935 42.4673C39.2028 42.6952 38.9318 42.8412 38.6367 42.8765L38.5 42.8853L31.5 42.8853C31.1906 42.8853 30.8935 42.7621 30.6748 42.5435C30.456 42.3247 30.333 42.0276 30.333 41.7183Z" fill="white" fill-opacity="0.25"/>
</g>
<defs>
<filter id="filter0_ii_97_3463" x="24.9834" y="23.5347" width="20.0339" height="23.6595" filterUnits="userSpaceOnUse" color-interpolation-filters="sRGB">
<feFlood flood-opacity="0" result="BackgroundImageFix"/>
<feBlend mode="normal" in="SourceGraphic" in2="BackgroundImageFix" result="shape"/>
<feColorMatrix in="SourceAlpha" type="matrix" values="0 0 0 0 0 0 0 0 0 0 0 0 0 0 0 0 0 0 127 0" result="hardAlpha"/>
<feOffset dy="-0.808961"/>
<feComposite in2="hardAlpha" operator="arithmetic" k2="-1" k3="1"/>
<feColorMatrix type="matrix" values="0 0 0 0 1 0 0 0 0 1 0 0 0 0 1 0 0 0 1 0"/>
<feBlend mode="overlay" in2="shape" result="effect1_innerShadow_97_3463"/>
<feColorMatrix in="SourceAlpha" type="matrix" values="0 0 0 0 0 0 0 0 0 0 0 0 0 0 0 0 0 0 127 0" result="hardAlpha"/>
<feOffset dy="0.808961"/>
<feGaussianBlur stdDeviation="3.23585"/>
<feComposite in2="hardAlpha" operator="arithmetic" k2="-1" k3="1"/>
<feColorMatrix type="matrix" values="0 0 0 0 1 0 0 0 0 1 0 0 0 0 1 0 0 0 1 0"/>
<feBlend mode="plus-lighter" in2="effect1_innerShadow_97_3463" result="effect2_innerShadow_97_3463"/>
</filter>
<linearGradient id="paint0_linear_97_3463" x1="24.9834" y1="33.8481" x2="45.0174" y2="33.8481" gradientUnits="userSpaceOnUse">
<stop stop-color="#003FFF"/>
<stop offset="1" stop-color="#2864FF"/>
</linearGradient>
</defs>
</svg>
