<svg width="69" height="194" viewBox="0 0 69 194" fill="none" xmlns="http://www.w3.org/2000/svg">
<g opacity="0.5">
<path d="M68.2707 21.9642C74.4263 21.9642 79.4164 16.9741 79.4164 10.8185C79.4164 4.66295 74.4263 -0.327148 68.2707 -0.327148C62.1151 -0.327148 57.125 4.66295 57.125 10.8185C57.125 16.9741 62.1151 21.9642 68.2707 21.9642Z" fill="#48B3FF"/>
<path d="M68.2707 50.6019C74.4263 50.6019 79.4164 45.6118 79.4164 39.4562C79.4164 33.3006 74.4263 28.3105 68.2707 28.3105C62.1151 28.3105 57.125 33.3006 57.125 39.4562C57.125 45.6118 62.1151 50.6019 68.2707 50.6019Z" fill="#48B3FF"/>
<path d="M39.7863 50.6019C45.9419 50.6019 50.932 45.6118 50.932 39.4562C50.932 33.3006 45.9419 28.3105 39.7863 28.3105C33.6307 28.3105 28.6406 33.3006 28.6406 39.4562C28.6406 45.6118 33.6307 50.6019 39.7863 50.6019Z" fill="#48B3FF"/>
<path d="M68.2707 193.328C74.4263 193.328 79.4164 188.337 79.4164 182.182C79.4164 176.026 74.4263 171.036 68.2707 171.036C62.1151 171.036 57.125 176.026 57.125 182.182C57.125 188.337 62.1151 193.328 68.2707 193.328Z" fill="#48B3FF"/>
<path d="M68.2707 164.69C74.4263 164.69 79.4164 159.7 79.4164 153.544C79.4164 147.389 74.4263 142.398 68.2707 142.398C62.1151 142.398 57.125 147.389 57.125 153.544C57.125 159.7 62.1151 164.69 68.2707 164.69Z" fill="#48B3FF"/>
<path d="M39.7863 164.69C45.9419 164.69 50.932 159.7 50.932 153.544C50.932 147.389 45.9419 142.398 39.7863 142.398C33.6307 142.398 28.6406 147.389 28.6406 153.544C28.6406 159.7 33.6307 164.69 39.7863 164.69Z" fill="#48B3FF"/>
<path d="M68.2707 79.0863C74.4263 79.0863 79.4164 74.0962 79.4164 67.9406C79.4164 61.785 74.4263 56.7949 68.2707 56.7949C62.1151 56.7949 57.125 61.785 57.125 67.9406C57.125 74.0962 62.1151 79.0863 68.2707 79.0863Z" fill="#48B3FF"/>
<path d="M39.7863 79.0863C45.9419 79.0863 50.932 74.0962 50.932 67.9406C50.932 61.785 45.9419 56.7949 39.7863 56.7949C33.6307 56.7949 28.6406 61.785 28.6406 67.9406C28.6406 74.0962 33.6307 79.0863 39.7863 79.0863Z" fill="#48B3FF"/>
<path d="M11.1457 79.0863C17.3013 79.0863 22.2914 74.0962 22.2914 67.9406C22.2914 61.785 17.3013 56.7949 11.1457 56.7949C4.99007 56.7949 0 61.785 0 67.9406C0 74.0962 4.99007 79.0863 11.1457 79.0863Z" fill="#48B3FF"/>
<path d="M68.2707 107.571C74.4263 107.571 79.4164 102.581 79.4164 96.425C79.4164 90.2694 74.4263 85.2793 68.2707 85.2793C62.1151 85.2793 57.125 90.2694 57.125 96.425C57.125 102.581 62.1151 107.571 68.2707 107.571Z" fill="#48B3FF"/>
<path d="M39.7863 107.571C45.9419 107.571 50.932 102.581 50.932 96.425C50.932 90.2694 45.9419 85.2793 39.7863 85.2793C33.6307 85.2793 28.6406 90.2694 28.6406 96.425C28.6406 102.581 33.6307 107.571 39.7863 107.571Z" fill="#48B3FF"/>
<path d="M11.1457 107.571C17.3013 107.571 22.2914 102.581 22.2914 96.425C22.2914 90.2694 17.3013 85.2793 11.1457 85.2793C4.99007 85.2793 0 90.2694 0 96.425C0 102.581 4.99007 107.571 11.1457 107.571Z" fill="#48B3FF"/>
<path d="M68.2707 136.208C74.4263 136.208 79.4164 131.218 79.4164 125.063C79.4164 118.907 74.4263 113.917 68.2707 113.917C62.1151 113.917 57.125 118.907 57.125 125.063C57.125 131.218 62.1151 136.208 68.2707 136.208Z" fill="#48B3FF"/>
<path d="M39.7863 136.208C45.9419 136.208 50.932 131.218 50.932 125.063C50.932 118.907 45.9419 113.917 39.7863 113.917C33.6307 113.917 28.6406 118.907 28.6406 125.063C28.6406 131.218 33.6307 136.208 39.7863 136.208Z" fill="#48B3FF"/>
<path d="M11.1457 136.208C17.3013 136.208 22.2914 131.218 22.2914 125.063C22.2914 118.907 17.3013 113.917 11.1457 113.917C4.99007 113.917 0 118.907 0 125.063C0 131.218 4.99007 136.208 11.1457 136.208Z" fill="#48B3FF"/>
</g>
</svg>