<svg width="14" height="14" viewBox="0 0 14 14" fill="none" xmlns="http://www.w3.org/2000/svg">
<path d="M6.99994 9.33248C8.28811 9.33248 9.33239 8.28821 9.33239 7.00003C9.33239 5.71185 8.28811 4.66757 6.99994 4.66757C5.71176 4.66757 4.66748 5.71185 4.66748 7.00003C4.66748 8.28821 5.71176 9.33248 6.99994 9.33248Z" fill="#F7F7F7"/>
<path d="M13.5723 5.49504C12.6679 4.02209 10.6106 1.55083 6.99999 1.55083C3.38933 1.55083 1.33209 4.02209 0.427675 5.49504C-0.142558 6.41736 -0.142558 7.58275 0.427675 8.5051C1.33209 9.97805 3.38933 12.4493 6.99999 12.4493C10.6106 12.4493 12.6679 9.97805 13.5723 8.5051C14.1425 7.58275 14.1425 6.41736 13.5723 5.49504ZM6.99999 10.4988C5.06772 10.4988 3.50128 8.93232 3.50128 7.00005C3.50128 5.06779 5.06772 3.50135 6.99999 3.50135C8.93225 3.50135 10.4987 5.06779 10.4987 7.00005C10.4967 8.93153 8.93146 10.4968 6.99999 10.4988Z" fill="#F7F7F7"/>
</svg>
